<?xml version="1.0" encoding="UTF-8"?>
<svg width="200px" height="60px" viewBox="0 0 200 60" version="1.1" xmlns="http://www.w3.org/2000/svg" xmlns:xlink="http://www.w3.org/1999/xlink">
    <!-- Generator: Sketch 42 (36781) - http://www.bohemiancoding.com/sketch -->
    <title>react-apollo7-logo</title>
    <desc>Created with Sketch.</desc>
    <defs></defs>
    <g id="Page-1" stroke="none" stroke-width="1" fill="none" fill-rule="evenodd">
        <g id="react-apollo7-logo">
            <g id="artificial-gravity-modulo" transform="translate(1.000000, 0.000000)">
                <g id="Group">
                    <path d="M23.5,3.677 C20.487,4.361 17.667,5.547 15.131,7.145" id="Shape" stroke="#F3D55B" stroke-width="2" stroke-linecap="round"></path>
                    <path d="M43.869,7.145 C41.332,5.547 38.512,4.361 35.5,3.677" id="Shape" stroke="#F3D55B" stroke-width="2" stroke-linecap="round"></path>
                    <path d="M55.823,24 C55.139,20.987 53.953,18.167 52.355,15.631" id="Shape" stroke="#F3D55B" stroke-width="2" stroke-linecap="round"></path>
                    <path d="M52.355,44.369 C53.953,41.832 55.139,39.012 55.823,36" id="Shape" stroke="#F3D55B" stroke-width="2" stroke-linecap="round"></path>
                    <path d="M35.5,56.323 C38.513,55.639 41.333,54.453 43.869,52.855" id="Shape" stroke="#F3D55B" stroke-width="2" stroke-linecap="round"></path>
                    <path d="M15.131,52.855 C17.668,54.453 20.488,55.639 23.5,56.323" id="Shape" stroke="#F3D55B" stroke-width="2" stroke-linecap="round"></path>
                    <path d="M3.177,36 C3.861,39.013 5.047,41.833 6.645,44.369" id="Shape" stroke="#F3D55B" stroke-width="2" stroke-linecap="round"></path>
                    <path d="M6.645,15.631 C5.047,18.167 3.861,20.987 3.177,24" id="Shape" stroke="#F3D55B" stroke-width="2" stroke-linecap="round"></path>
                    <circle id="Oval" stroke="#F3D55B" stroke-width="2" stroke-linecap="round" fill="#FFFFFF" fill-rule="nonzero" cx="29.5" cy="30" r="12.536"></circle>
                    <g id="Oval" fill-rule="nonzero" fill="#F3D55B">
                        <circle cx="4.5" cy="4" r="1"></circle>
                        <circle cx="21.5" cy="13" r="1"></circle>
                        <circle cx="10.5" cy="32" r="1"></circle>
                        <circle cx="1.5" cy="53" r="1"></circle>
                        <circle cx="16.5" cy="59" r="1"></circle>
                        <circle cx="58.5" cy="1" r="1"></circle>
                        <circle cx="57.5" cy="10" r="1"></circle>
                        <circle cx="50.5" cy="5" r="1"></circle>
                        <circle cx="56.5" cy="53" r="1"></circle>
                        <circle cx="49.5" cy="57" r="1"></circle>
                    </g>
                    <circle id="Oval" stroke="#F3D55B" stroke-width="2" stroke-linecap="round" fill="#8697CB" fill-rule="nonzero" cx="29.5" cy="30" r="9"></circle>
                    <circle id="Oval" stroke="#F3D55B" stroke-width="2" stroke-linecap="round" cx="29.5" cy="30" r="4"></circle>
                    <path d="M32.328,27.172 L35.864,23.636" id="Shape" stroke="#F3D55B" stroke-width="2" stroke-linecap="round"></path>
                    <path d="M26.672,32.828 L23.136,36.364" id="Shape" stroke="#F3D55B" stroke-width="2" stroke-linecap="round"></path>
                    <path d="M32.328,32.828 L35.864,36.364" id="Shape" stroke="#F3D55B" stroke-width="2" stroke-linecap="round"></path>
                    <path d="M26.672,27.172 L23.136,23.636" id="Shape" stroke="#F3D55B" stroke-width="2" stroke-linecap="round"></path>
                    <path d="M29.5,21 L29.5,11" id="Shape" stroke="#F3D55B" stroke-width="2" stroke-linecap="round"></path>
                    <path d="M29.5,11 L34,6.5" id="Shape" stroke="#F3D55B" stroke-width="2" stroke-linecap="round"></path>
                    <path d="M29.5,11 L25,6.5" id="Shape" stroke="#F3D55B" stroke-width="2" stroke-linecap="round"></path>
                    <path d="M36.025,36.525 L42.5,43" id="Shape" stroke="#F3D55B" stroke-width="2" stroke-linecap="round"></path>
                    <path d="M42.5,43.636 L42.5,50" id="Shape" stroke="#F3D55B" stroke-width="2" stroke-linecap="round"></path>
                    <path d="M43.096,43 L49.46,43" id="Shape" stroke="#F3D55B" stroke-width="2" stroke-linecap="round"></path>
                    <path d="M22.975,36.525 L16.5,43" id="Shape" stroke="#F3D55B" stroke-width="2" stroke-linecap="round"></path>
                    <path d="M15.864,43 L9.5,43" id="Shape" stroke="#F3D55B" stroke-width="2" stroke-linecap="round"></path>
                    <path d="M16.5,43.596 L16.5,49.96" id="Shape" stroke="#F3D55B" stroke-width="2" stroke-linecap="round"></path>
                    <path d="M44.234,11.062 C44.612,11.356 44.981,11.661 45.34,11.977 C45.353,11.988 45.365,11.999 45.378,12.01 C46.125,12.67 46.831,13.375 47.491,14.123 C47.502,14.136 47.513,14.148 47.524,14.161 C47.84,14.52 48.145,14.889 48.439,15.267 C48.455,15.287 48.471,15.308 48.487,15.328 C49.099,16.119 49.663,16.948 50.174,17.813 L50.174,17.813 L53.803,14.184 C51.596,10.799 48.702,7.906 45.318,5.699 L41.71,9.307 C41.712,9.323 41.712,9.326 41.714,9.342 C42.57,9.849 43.391,10.408 44.174,11.014 C44.193,11.03 44.213,11.046 44.234,11.062 Z" id="Shape" fill="#BDC3C7" fill-rule="nonzero"></path>
                    <path d="M52.744,24 C52.857,24.438 52.954,24.882 53.042,25.33 C53.07,25.469 53.092,25.61 53.117,25.75 C53.173,26.065 53.225,26.382 53.268,26.702 C53.29,26.862 53.31,27.023 53.329,27.184 C53.366,27.504 53.396,27.827 53.421,28.151 C53.432,28.297 53.446,28.443 53.454,28.59 C53.482,29.057 53.5,29.526 53.5,30 C53.5,30.474 53.482,30.943 53.455,31.41 C53.446,31.557 53.433,31.703 53.422,31.849 C53.397,32.173 53.367,32.496 53.33,32.816 C53.311,32.977 53.291,33.137 53.269,33.298 C53.225,33.618 53.174,33.934 53.117,34.25 C53.092,34.39 53.069,34.531 53.042,34.67 C52.954,35.118 52.857,35.562 52.744,36 L52.744,36 L57.875,36 C58.282,34.064 58.5,32.057 58.5,30 C58.5,27.943 58.282,25.936 57.875,24 L52.744,24 L52.744,24 Z" id="Shape" fill="#BDC3C7" fill-rule="nonzero"></path>
                    <path d="M53.802,45.817 L50.173,42.188 L50.173,42.188 C49.662,43.053 49.098,43.882 48.486,44.673 C48.47,44.694 48.454,44.714 48.438,44.734 C48.144,45.112 47.839,45.481 47.523,45.84 C47.512,45.853 47.501,45.865 47.49,45.878 C46.83,46.625 46.124,47.331 45.377,47.991 C45.365,48.002 45.352,48.013 45.339,48.024 C44.98,48.34 44.611,48.645 44.233,48.939 C44.213,48.955 44.192,48.971 44.172,48.987 C43.415,49.573 42.623,50.115 41.797,50.609 C41.788,50.679 41.786,50.695 41.777,50.765 L45.315,54.303 C48.701,52.095 51.595,49.201 53.802,45.817 Z" id="Shape" fill="#BDC3C7" fill-rule="nonzero"></path>
                    <path d="M35.5,58.375 L35.5,53.244 L35.5,53.244 C35.062,53.357 34.618,53.454 34.17,53.542 C34.031,53.57 33.89,53.592 33.75,53.617 C33.435,53.673 33.118,53.725 32.798,53.768 C32.638,53.79 32.477,53.81 32.316,53.829 C31.996,53.866 31.673,53.896 31.349,53.921 C31.203,53.932 31.057,53.946 30.91,53.954 C30.443,53.982 29.974,54 29.5,54 C29.026,54 28.557,53.982 28.09,53.955 C27.943,53.946 27.797,53.933 27.651,53.922 C27.327,53.897 27.004,53.867 26.684,53.83 C26.523,53.811 26.363,53.791 26.202,53.769 C25.882,53.725 25.566,53.674 25.25,53.617 C25.11,53.592 24.969,53.569 24.83,53.542 C24.382,53.454 23.938,53.357 23.5,53.244 L23.5,53.244 L23.5,58.375 C25.436,58.782 27.443,59 29.5,59 C31.557,59 33.564,58.782 35.5,58.375 Z" id="Shape" fill="#BDC3C7" fill-rule="nonzero"></path>
                    <path d="M14.766,48.938 C14.388,48.644 14.019,48.339 13.66,48.023 C13.647,48.012 13.635,48.001 13.622,47.99 C12.875,47.33 12.169,46.625 11.509,45.877 C11.498,45.865 11.487,45.852 11.476,45.839 C11.16,45.48 10.855,45.111 10.561,44.733 C10.545,44.713 10.529,44.692 10.513,44.672 C9.901,43.881 9.337,43.052 8.826,42.187 L8.826,42.187 L5.197,45.816 C7.404,49.201 10.298,52.094 13.682,54.301 L17.043,50.94 C17.018,50.733 17.011,50.683 16.986,50.477 C16.238,50.019 15.517,49.52 14.826,48.985 C14.807,48.97 14.787,48.954 14.766,48.938 Z" id="Shape" fill="#BDC3C7" fill-rule="nonzero"></path>
                    <path d="M5.883,34.25 C5.827,33.935 5.775,33.618 5.731,33.298 C5.709,33.138 5.689,32.978 5.67,32.816 C5.633,32.495 5.603,32.173 5.578,31.849 C5.567,31.703 5.553,31.557 5.545,31.41 C5.518,30.943 5.5,30.474 5.5,30 C5.5,29.526 5.518,29.057 5.545,28.59 C5.554,28.443 5.567,28.297 5.578,28.151 C5.603,27.827 5.633,27.504 5.67,27.184 C5.689,27.023 5.709,26.862 5.731,26.702 C5.775,26.383 5.826,26.066 5.882,25.75 C5.907,25.61 5.93,25.469 5.957,25.33 C6.045,24.882 6.142,24.438 6.255,24 L6.255,24 L1.125,24 C0.718,25.936 0.5,27.943 0.5,30 C0.5,32.057 0.718,34.064 1.125,36 L6.256,36 L6.256,36 C6.143,35.562 6.046,35.118 5.958,34.67 C5.93,34.53 5.908,34.39 5.883,34.25 Z" id="Shape" fill="#BDC3C7" fill-rule="nonzero"></path>
                    <path d="M5.198,14.183 L8.827,17.812 L8.827,17.812 C9.338,16.947 9.902,16.118 10.514,15.327 C10.53,15.306 10.546,15.286 10.562,15.266 C10.856,14.888 11.161,14.519 11.477,14.16 C11.488,14.147 11.499,14.135 11.51,14.122 C12.17,13.375 12.876,12.669 13.623,12.009 C13.635,11.998 13.648,11.987 13.661,11.976 C14.02,11.66 14.389,11.355 14.767,11.061 C14.787,11.045 14.808,11.029 14.828,11.013 C15.576,10.434 16.359,9.897 17.174,9.408 C17.185,9.32 17.188,9.299 17.199,9.211 L13.684,5.696 C10.299,7.905 7.405,10.799 5.198,14.183 Z" id="Shape" fill="#BDC3C7" fill-rule="nonzero"></path>
                    <path d="M23.5,1.625 L23.5,6.756 L23.5,6.756 C23.938,6.643 24.382,6.546 24.83,6.458 C24.969,6.431 25.11,6.408 25.25,6.383 C25.565,6.327 25.882,6.275 26.202,6.231 C26.362,6.209 26.522,6.189 26.684,6.17 C27.005,6.133 27.327,6.103 27.651,6.078 C27.797,6.067 27.943,6.053 28.09,6.045 C28.557,6.018 29.026,6 29.5,6 C29.974,6 30.443,6.018 30.91,6.045 C31.057,6.054 31.203,6.067 31.349,6.078 C31.673,6.103 31.996,6.133 32.316,6.17 C32.477,6.189 32.638,6.209 32.798,6.231 C33.117,6.275 33.434,6.326 33.75,6.382 C33.89,6.407 34.031,6.43 34.17,6.457 C34.618,6.545 35.062,6.642 35.5,6.755 L35.5,6.755 L35.5,1.625 C33.564,1.218 31.557,1 29.5,1 C27.443,1 25.436,1.218 23.5,1.625 Z" id="Shape" fill="#BDC3C7" fill-rule="nonzero"></path>
                </g>
            </g>
            <g id="artificial-gravity-modulo">
                <g id="Group">
                    <path d="M23.5,3.677 C20.487,4.361 17.667,5.547 15.131,7.145" id="Shape" stroke="#556080" stroke-width="2" stroke-linecap="round"></path>
                    <path d="M43.869,7.145 C41.332,5.547 38.512,4.361 35.5,3.677" id="Shape" stroke="#556080" stroke-width="2" stroke-linecap="round"></path>
                    <path d="M55.823,24 C55.139,20.987 53.953,18.167 52.355,15.631" id="Shape" stroke="#556080" stroke-width="2" stroke-linecap="round"></path>
                    <path d="M52.355,44.369 C53.953,41.832 55.139,39.012 55.823,36" id="Shape" stroke="#556080" stroke-width="2" stroke-linecap="round"></path>
                    <path d="M35.5,56.323 C38.513,55.639 41.333,54.453 43.869,52.855" id="Shape" stroke="#556080" stroke-width="2" stroke-linecap="round"></path>
                    <path d="M15.131,52.855 C17.668,54.453 20.488,55.639 23.5,56.323" id="Shape" stroke="#556080" stroke-width="2" stroke-linecap="round"></path>
                    <path d="M3.177,36 C3.861,39.013 5.047,41.833 6.645,44.369" id="Shape" stroke="#556080" stroke-width="2" stroke-linecap="round"></path>
                    <path d="M6.645,15.631 C5.047,18.167 3.861,20.987 3.177,24" id="Shape" stroke="#556080" stroke-width="2" stroke-linecap="round"></path>
                    <circle id="Oval" stroke="#556080" stroke-width="2" stroke-linecap="round" fill="#FFFFFF" fill-rule="nonzero" cx="29.5" cy="30" r="12.536"></circle>
                    <g id="Oval" fill-rule="nonzero" fill="#F3D55B">
                        <circle cx="4.5" cy="4" r="1"></circle>
                        <circle cx="21.5" cy="13" r="1"></circle>
                        <circle cx="10.5" cy="32" r="1"></circle>
                        <circle cx="1.5" cy="53" r="1"></circle>
                        <circle cx="16.5" cy="59" r="1"></circle>
                        <circle cx="58.5" cy="1" r="1"></circle>
                        <circle cx="57.5" cy="10" r="1"></circle>
                        <circle cx="50.5" cy="5" r="1"></circle>
                        <circle cx="56.5" cy="53" r="1"></circle>
                        <circle cx="49.5" cy="57" r="1"></circle>
                    </g>
                    <circle id="Oval" stroke="#556080" stroke-width="2" stroke-linecap="round" fill="#8697CB" fill-rule="nonzero" cx="29.5" cy="30" r="9"></circle>
                    <circle id="Oval" stroke="#556080" stroke-width="2" stroke-linecap="round" cx="29.5" cy="30" r="4"></circle>
                    <path d="M32.328,27.172 L35.864,23.636" id="Shape" stroke="#556080" stroke-width="2" stroke-linecap="round"></path>
                    <path d="M26.672,32.828 L23.136,36.364" id="Shape" stroke="#556080" stroke-width="2" stroke-linecap="round"></path>
                    <path d="M32.328,32.828 L35.864,36.364" id="Shape" stroke="#556080" stroke-width="2" stroke-linecap="round"></path>
                    <path d="M26.672,27.172 L23.136,23.636" id="Shape" stroke="#556080" stroke-width="2" stroke-linecap="round"></path>
                    <path d="M29.5,21 L29.5,11" id="Shape" stroke="#556080" stroke-width="2" stroke-linecap="round"></path>
                    <path d="M29.5,11 L34,6.5" id="Shape" stroke="#556080" stroke-width="2" stroke-linecap="round"></path>
                    <path d="M29.5,11 L25,6.5" id="Shape" stroke="#556080" stroke-width="2" stroke-linecap="round"></path>
                    <path d="M36.025,36.525 L42.5,43" id="Shape" stroke="#556080" stroke-width="2" stroke-linecap="round"></path>
                    <path d="M42.5,43.636 L42.5,50" id="Shape" stroke="#556080" stroke-width="2" stroke-linecap="round"></path>
                    <path d="M43.096,43 L49.46,43" id="Shape" stroke="#556080" stroke-width="2" stroke-linecap="round"></path>
                    <path d="M22.975,36.525 L16.5,43" id="Shape" stroke="#556080" stroke-width="2" stroke-linecap="round"></path>
                    <path d="M15.864,43 L9.5,43" id="Shape" stroke="#556080" stroke-width="2" stroke-linecap="round"></path>
                    <path d="M16.5,43.596 L16.5,49.96" id="Shape" stroke="#556080" stroke-width="2" stroke-linecap="round"></path>
                    <path d="M44.234,11.062 C44.612,11.356 44.981,11.661 45.34,11.977 C45.353,11.988 45.365,11.999 45.378,12.01 C46.125,12.67 46.831,13.375 47.491,14.123 C47.502,14.136 47.513,14.148 47.524,14.161 C47.84,14.52 48.145,14.889 48.439,15.267 C48.455,15.287 48.471,15.308 48.487,15.328 C49.099,16.119 49.663,16.948 50.174,17.813 L50.174,17.813 L53.803,14.184 C51.596,10.799 48.702,7.906 45.318,5.699 L41.71,9.307 C41.712,9.323 41.712,9.326 41.714,9.342 C42.57,9.849 43.391,10.408 44.174,11.014 C44.193,11.03 44.213,11.046 44.234,11.062 Z" id="Shape" fill="#BDC3C7" fill-rule="nonzero"></path>
                    <path d="M52.744,24 C52.857,24.438 52.954,24.882 53.042,25.33 C53.07,25.469 53.092,25.61 53.117,25.75 C53.173,26.065 53.225,26.382 53.268,26.702 C53.29,26.862 53.31,27.023 53.329,27.184 C53.366,27.504 53.396,27.827 53.421,28.151 C53.432,28.297 53.446,28.443 53.454,28.59 C53.482,29.057 53.5,29.526 53.5,30 C53.5,30.474 53.482,30.943 53.455,31.41 C53.446,31.557 53.433,31.703 53.422,31.849 C53.397,32.173 53.367,32.496 53.33,32.816 C53.311,32.977 53.291,33.137 53.269,33.298 C53.225,33.618 53.174,33.934 53.117,34.25 C53.092,34.39 53.069,34.531 53.042,34.67 C52.954,35.118 52.857,35.562 52.744,36 L52.744,36 L57.875,36 C58.282,34.064 58.5,32.057 58.5,30 C58.5,27.943 58.282,25.936 57.875,24 L52.744,24 L52.744,24 Z" id="Shape" fill="#BDC3C7" fill-rule="nonzero"></path>
                    <path d="M53.802,45.817 L50.173,42.188 L50.173,42.188 C49.662,43.053 49.098,43.882 48.486,44.673 C48.47,44.694 48.454,44.714 48.438,44.734 C48.144,45.112 47.839,45.481 47.523,45.84 C47.512,45.853 47.501,45.865 47.49,45.878 C46.83,46.625 46.124,47.331 45.377,47.991 C45.365,48.002 45.352,48.013 45.339,48.024 C44.98,48.34 44.611,48.645 44.233,48.939 C44.213,48.955 44.192,48.971 44.172,48.987 C43.415,49.573 42.623,50.115 41.797,50.609 C41.788,50.679 41.786,50.695 41.777,50.765 L45.315,54.303 C48.701,52.095 51.595,49.201 53.802,45.817 Z" id="Shape" fill="#BDC3C7" fill-rule="nonzero"></path>
                    <path d="M35.5,58.375 L35.5,53.244 L35.5,53.244 C35.062,53.357 34.618,53.454 34.17,53.542 C34.031,53.57 33.89,53.592 33.75,53.617 C33.435,53.673 33.118,53.725 32.798,53.768 C32.638,53.79 32.477,53.81 32.316,53.829 C31.996,53.866 31.673,53.896 31.349,53.921 C31.203,53.932 31.057,53.946 30.91,53.954 C30.443,53.982 29.974,54 29.5,54 C29.026,54 28.557,53.982 28.09,53.955 C27.943,53.946 27.797,53.933 27.651,53.922 C27.327,53.897 27.004,53.867 26.684,53.83 C26.523,53.811 26.363,53.791 26.202,53.769 C25.882,53.725 25.566,53.674 25.25,53.617 C25.11,53.592 24.969,53.569 24.83,53.542 C24.382,53.454 23.938,53.357 23.5,53.244 L23.5,53.244 L23.5,58.375 C25.436,58.782 27.443,59 29.5,59 C31.557,59 33.564,58.782 35.5,58.375 Z" id="Shape" fill="#BDC3C7" fill-rule="nonzero"></path>
                    <path d="M14.766,48.938 C14.388,48.644 14.019,48.339 13.66,48.023 C13.647,48.012 13.635,48.001 13.622,47.99 C12.875,47.33 12.169,46.625 11.509,45.877 C11.498,45.865 11.487,45.852 11.476,45.839 C11.16,45.48 10.855,45.111 10.561,44.733 C10.545,44.713 10.529,44.692 10.513,44.672 C9.901,43.881 9.337,43.052 8.826,42.187 L8.826,42.187 L5.197,45.816 C7.404,49.201 10.298,52.094 13.682,54.301 L17.043,50.94 C17.018,50.733 17.011,50.683 16.986,50.477 C16.238,50.019 15.517,49.52 14.826,48.985 C14.807,48.97 14.787,48.954 14.766,48.938 Z" id="Shape" fill="#BDC3C7" fill-rule="nonzero"></path>
                    <path d="M5.883,34.25 C5.827,33.935 5.775,33.618 5.731,33.298 C5.709,33.138 5.689,32.978 5.67,32.816 C5.633,32.495 5.603,32.173 5.578,31.849 C5.567,31.703 5.553,31.557 5.545,31.41 C5.518,30.943 5.5,30.474 5.5,30 C5.5,29.526 5.518,29.057 5.545,28.59 C5.554,28.443 5.567,28.297 5.578,28.151 C5.603,27.827 5.633,27.504 5.67,27.184 C5.689,27.023 5.709,26.862 5.731,26.702 C5.775,26.383 5.826,26.066 5.882,25.75 C5.907,25.61 5.93,25.469 5.957,25.33 C6.045,24.882 6.142,24.438 6.255,24 L6.255,24 L1.125,24 C0.718,25.936 0.5,27.943 0.5,30 C0.5,32.057 0.718,34.064 1.125,36 L6.256,36 L6.256,36 C6.143,35.562 6.046,35.118 5.958,34.67 C5.93,34.53 5.908,34.39 5.883,34.25 Z" id="Shape" fill="#BDC3C7" fill-rule="nonzero"></path>
                    <path d="M5.198,14.183 L8.827,17.812 L8.827,17.812 C9.338,16.947 9.902,16.118 10.514,15.327 C10.53,15.306 10.546,15.286 10.562,15.266 C10.856,14.888 11.161,14.519 11.477,14.16 C11.488,14.147 11.499,14.135 11.51,14.122 C12.17,13.375 12.876,12.669 13.623,12.009 C13.635,11.998 13.648,11.987 13.661,11.976 C14.02,11.66 14.389,11.355 14.767,11.061 C14.787,11.045 14.808,11.029 14.828,11.013 C15.576,10.434 16.359,9.897 17.174,9.408 C17.185,9.32 17.188,9.299 17.199,9.211 L13.684,5.696 C10.299,7.905 7.405,10.799 5.198,14.183 Z" id="Shape" fill="#BDC3C7" fill-rule="nonzero"></path>
                    <path d="M23.5,1.625 L23.5,6.756 L23.5,6.756 C23.938,6.643 24.382,6.546 24.83,6.458 C24.969,6.431 25.11,6.408 25.25,6.383 C25.565,6.327 25.882,6.275 26.202,6.231 C26.362,6.209 26.522,6.189 26.684,6.17 C27.005,6.133 27.327,6.103 27.651,6.078 C27.797,6.067 27.943,6.053 28.09,6.045 C28.557,6.018 29.026,6 29.5,6 C29.974,6 30.443,6.018 30.91,6.045 C31.057,6.054 31.203,6.067 31.349,6.078 C31.673,6.103 31.996,6.133 32.316,6.17 C32.477,6.189 32.638,6.209 32.798,6.231 C33.117,6.275 33.434,6.326 33.75,6.382 C33.89,6.407 34.031,6.43 34.17,6.457 C34.618,6.545 35.062,6.642 35.5,6.755 L35.5,6.755 L35.5,1.625 C33.564,1.218 31.557,1 29.5,1 C27.443,1 25.436,1.218 23.5,1.625 Z" id="Shape" fill="#BDC3C7" fill-rule="nonzero"></path>
                </g>
            </g>
            <g id="Group-2" transform="translate(71.000000, 4.000000)" font-size="30" font-family="SpaceMonoForPowerline-Regular, Space Mono for Powerline" font-weight="normal">
                <text id="apollo7" fill="#F3D55B">
                    <tspan x="1.07462687" y="34">apollo7</tspan>
                </text>
                <text id="apollo7" fill="#F3D55B">
                    <tspan x="2.07462687" y="34">apollo7</tspan>
                </text>
                <text id="apollo7" fill="#556080">
                    <tspan x="0" y="34">apollo7</tspan>
                </text>
            </g>
        </g>
    </g>
</svg>